<svg id="Layer_5" data-name="Layer 5" xmlns="http://www.w3.org/2000/svg" viewBox="0 0 135 135"><defs><style>.cls-1{fill:#1677f0;}.cls-2{fill:#fff;}</style></defs><path class="cls-1" d="M607.5,540a67.5,67.5,0,1,0-78,66.68V559.51H512.31V540h17.14V525.13c0-16.92,10.08-26.26,25.5-26.26a103.77,103.77,0,0,1,15.11,1.32V516.8h-8.51c-8.39,0-11,5.2-11,10.54V540h18.72l-3,19.51H550.55v47.17A67.51,67.51,0,0,0,607.5,540Z" transform="translate(-472.5 -472.5)"/><path class="cls-2" d="M566.27,559.51l3-19.51H550.55V527.34c0-5.34,2.61-10.54,11-10.54h8.51V500.19A103.77,103.77,0,0,0,555,498.87c-15.42,0-25.5,9.34-25.5,26.26V540H512.31v19.51h17.14v47.17a68.28,68.28,0,0,0,21.1,0V559.51Z" transform="translate(-472.5 -472.5)"/></svg>