<svg id="Layer_5" data-name="Layer 5" xmlns="http://www.w3.org/2000/svg" viewBox="0 0 135 135"><defs><style>.cls-1{fill:#2967b0;}.cls-2{fill:#fdfdfd;}</style></defs><circle class="cls-1" cx="67.5" cy="67.5" r="67.5"/><path class="cls-2" d="M545.22,530.79c1.11-1.24,2-2.51,3.16-3.58a17.3,17.3,0,0,1,12.48-4.92,28.74,28.74,0,0,1,7.84,1c5.86,1.69,9.27,5.73,10.89,11.45A48,48,0,0,1,581,547.81c0,9.32,0,18.65,0,28,0,.88-.24,1.1-1.1,1.1q-7.2-.06-14.41,0c-.84,0-1-.26-1-1q0-13.32,0-26.62a24.16,24.16,0,0,0-.77-6.61c-1.15-4-4-6-8.17-5.79-5.7.3-8.66,3.12-9.39,8.91a34.19,34.19,0,0,0-.25,4.17c0,8.62,0,17.25,0,25.88,0,.86-.21,1.12-1.09,1.11q-7.26-.06-14.52,0c-.77,0-1-.21-1-1q0-25.64,0-51.25c0-.85.28-1,1.08-1,4.59,0,9.19,0,13.78,0,.85,0,1.07.26,1,1.06C545.19,526.71,545.22,528.75,545.22,530.79Z" transform="translate(-472.5 -472.5)"/><path class="cls-2" d="M518.9,550.31c0,8.46,0,16.91,0,25.36,0,.94-.23,1.22-1.2,1.21-4.8,0-9.6,0-14.4,0-.77,0-1-.19-1-1q0-25.67,0-51.33c0-.71.17-1,.92-1,4.87,0,9.75,0,14.62,0,.93,0,1.06.35,1.06,1.15C518.89,533.27,518.9,541.79,518.9,550.31Z" transform="translate(-472.5 -472.5)"/><path class="cls-2" d="M520.23,506.64a9.6,9.6,0,1,1-9.58-9.54A9.62,9.62,0,0,1,520.23,506.64Z" transform="translate(-472.5 -472.5)"/></svg>