<svg id="Layer_3" data-name="Layer 3" xmlns="http://www.w3.org/2000/svg" viewBox="0 0 232 232"><defs><style>.cls-1{fill:#95d5b2;}</style></defs><circle class="cls-1" cx="540" cy="539.23" r="55.62" transform="translate(-534.09 514.91) rotate(-76.54)"/><path class="cls-1" d="M540,468.53a7,7,0,0,1-7-7V431a7,7,0,0,1,14,0v30.51A7,7,0,0,1,540,468.53Z" transform="translate(-424 -424)"/><path class="cls-1" d="M540,656a7,7,0,0,1-7-7V618.48a7,7,0,0,1,14,0V649A7,7,0,0,1,540,656Z" transform="translate(-424 -424)"/><path class="cls-1" d="M649,547h-30.5a7,7,0,1,1,0-14H649a7,7,0,0,1,0,14Z" transform="translate(-424 -424)"/><path class="cls-1" d="M431,547h30.5a7,7,0,1,0,0-14H431a7,7,0,0,0,0,14Z" transform="translate(-424 -424)"/><path class="cls-1" d="M484.5,491.51a7,7,0,0,1-4.95-2.05L458,467.89a7,7,0,0,1,9.91-9.91l21.57,21.57a7,7,0,0,1-5,12Z" transform="translate(-424 -424)"/><path class="cls-1" d="M617.07,624.08a7,7,0,0,1-5-2.06l-21.57-21.57a7,7,0,0,1,9.91-9.91L622,612.11a7,7,0,0,1-4.95,12Z" transform="translate(-424 -424)"/><path class="cls-1" d="M462.93,624.08a7,7,0,0,1-4.95-12l21.57-21.57a7,7,0,0,1,9.91,9.91L467.89,622A7,7,0,0,1,462.93,624.08Z" transform="translate(-424 -424)"/><path class="cls-1" d="M595.5,491.51a7,7,0,0,1-5-12L612.11,458a7,7,0,1,1,9.91,9.91l-21.57,21.57A7,7,0,0,1,595.5,491.51Z" transform="translate(-424 -424)"/></svg>