<svg id="Layer_5" data-name="Layer 5" xmlns="http://www.w3.org/2000/svg" viewBox="0 0 135 135"><defs><style>.cls-1{fill:#fd0000;}.cls-2{fill:#fff;}</style></defs><circle class="cls-1" cx="67.5" cy="67.5" r="67.5"/><path class="cls-2" d="M583.12,518.34a11.3,11.3,0,0,0-8-8c-7-1.88-35.16-1.88-35.16-1.88s-28.14,0-35.16,1.88a11.3,11.3,0,0,0-8,8C495,525.36,495,540,495,540s0,14.64,1.88,21.66a11.3,11.3,0,0,0,8,8c7,1.88,35.16,1.88,35.16,1.88s28.14,0,35.16-1.88a11.3,11.3,0,0,0,8-8C585,554.64,585,540,585,540S585,525.36,583.12,518.34ZM531,553.5v-27L554.38,540Z" transform="translate(-472.5 -472.5)"/></svg>